<?xml version="1.0"?>
<svg xmlns="http://www.w3.org/2000/svg" xmlns:xlink="http://www.w3.org/1999/xlink" version="1.1" id="Capa_1" x="0px" y="0px" viewBox="0 0 511.993 511.993" style="enable-background:new 0 0 511.993 511.993;" xml:space="preserve" width="512px" height="512px" class=""><g><circle style="fill:#18AAE4" cx="255.997" cy="255.997" r="255.997" data-original="#DF3A5C" class="" data-old_color="#18aae4"/><path style="fill:#18AAE4" d="M245.601,166.699l18.485,18.485c-15.197,0.823-30.552-2.133-44.622-8.863  c-9.474-4.532-19.551-6.675-29.875-5.962c-45.918,3.169-79.29,61.572-74.536,130.449c2.634,38.169,19.018,71.359,39.48,92.933  l-0.035,0.035l117.699,117.699c124.998-7.807,225.682-105.299,238.433-228.894L320.175,92.124  c-18.909,0.58-37.645,8.066-52.077,22.498S246.18,147.791,245.601,166.699z" data-original="#BA203F" class="active-path" data-old_color="#18aae4"/><g>
	<path style="fill:#F6F4F4" d="M343.115,263.031c0-26.032,14.259-49.236,35.273-62.108c-13.019-17.866-30.253-29.217-49.77-30.564   c-10.33-0.713-20.415,1.433-29.895,5.971c-25.057,11.995-54.199,11.978-79.26-0.009c-9.475-4.532-19.551-6.675-29.875-5.962   c-45.918,3.169-79.29,61.572-74.536,130.449c4.752,68.877,54.275,121.561,91.746,118.976c4.974-0.344,10.023-1.682,15.031-3.906   c23.711-10.534,50.829-10.542,74.538-0.004c5.01,2.227,10.063,3.567,15.04,3.91c31.3,2.16,70.991-34.259,85.99-86.454   C366.444,324.986,343.115,296.327,343.115,263.031z" data-original="#FFFFFF" class="" data-old_color="#F6F3F3"/>
	<path style="fill:#F6F4F4" d="M268.098,114.622c-14.432,14.432-21.918,33.168-22.498,52.077   c18.909-0.58,37.645-8.066,52.077-22.498s21.918-33.168,22.498-52.077C301.266,92.704,282.531,100.19,268.098,114.622z" data-original="#FFFFFF" class="" data-old_color="#F6F3F3"/>
</g></g> </svg>
